<svg width="163" height="60" viewBox="0 0 163 60" fill="none" xmlns="http://www.w3.org/2000/svg">
<circle cx="30" cy="30" r="27" stroke="white" stroke-width="6"/>
<path d="M65.5 3C80.7348 3 93 15.1349 93 30C93 44.8651 80.7348 57 65.5 57C50.2652 57 38 44.8651 38 30C38 15.1349 50.2652 3 65.5 3Z" stroke="white" stroke-width="6"/>
<path d="M101.5 3C116.735 3 129 15.1349 129 30C129 44.8651 116.735 57 101.5 57C86.2652 57 74 44.8651 74 30C74 15.1349 86.2652 3 101.5 3Z" stroke="white" stroke-width="6"/>
<path d="M132.5 3C147.735 3 160 15.1349 160 30C160 44.8651 147.735 57 132.5 57C117.265 57 105 44.8651 105 30C105 15.1349 117.265 3 132.5 3Z" stroke="white" stroke-width="6"/>
</svg>
